<svg xmlns="http://www.w3.org/2000/svg" viewBox="0 0 156.461 34.216" fill="black"><path d="M13.16.658c4.543 0 8.342 1.574 11.397 4.724 3.055 3.15 4.583 7.058 4.583 11.726 0 4.67-1.527 8.578-4.583 11.727S17.703 33.56 13.16 33.56H0V.66h13.16zm0 25.662c2.6 0 4.708-.838 6.32-2.515 1.615-1.676 2.422-3.908 2.422-6.698 0-2.788-.807-5.02-2.42-6.697-1.615-1.676-3.722-2.515-6.322-2.515H7.52V26.32h5.64zm27.73 0h13.16v7.238H33.37V.658h20.445v7.238H40.89v5.452h11.75v7.144H40.89v5.828zm25.285 7.238L55.46.658h8.224l7.285 24.205L78.252.658h8.225l-10.717 32.9h-9.587zM89.3.658h7.52v32.9H89.3V.658zm28.857 33.558c-4.92 0-9-1.637-12.244-4.912-3.243-3.274-4.864-7.34-4.864-12.197 0-4.856 1.62-8.922 4.862-12.196C109.157 1.64 113.238 0 118.157 0c2.945 0 5.67.682 8.178 2.044 2.507 1.363 4.48 3.22 5.922 5.57l-6.486 3.76c-.72-1.284-1.753-2.28-3.1-2.984s-2.852-1.058-4.512-1.058c-2.914 0-5.24.893-6.98 2.68-1.738 1.785-2.607 4.15-2.607 7.096 0 2.946.87 5.31 2.61 7.097 1.74 1.786 4.064 2.68 6.98 2.68 1.66 0 3.17-.36 4.534-1.082 1.363-.72 2.39-1.708 3.078-2.96l6.487 3.76c-1.41 2.35-3.37 4.206-5.876 5.568-2.507 1.366-5.248 2.047-8.225 2.047zM143.3 26.32h13.16v7.238h-20.68V.658h20.446v7.238H143.3v5.452h11.75v7.144H143.3v5.828z"/></svg>